<svg width="309" height="45" viewBox="0 0 309 45" fill="none" xmlns="http://www.w3.org/2000/svg">
<path d="M23.6 6.6996H0V0.0996094H53.7V6.6996H30.2V44.1996H23.5V6.6996H23.6Z" fill="#4E1954"/>
<path d="M61.1992 33.5V10.7C61.1992 4.8 65.9992 0 71.8992 0H113.499V6.60001H71.8992C69.6992 6.60001 67.8992 8.5 67.8992 10.7V18.7H113.499V25.4H67.8992V33.4C67.8992 35.6 69.6992 37.4 71.8992 37.4H113.499V44.1H71.8992C65.9992 44.1 61.1992 39.3 61.1992 33.4V33.5Z" fill="#4E1954"/>
<path d="M120.898 33.4996V0.0996094H127.598V33.4996C127.598 35.6996 129.398 37.4996 131.598 37.4996H170.298V44.1996H131.598C125.698 44.1996 120.898 39.3996 120.898 33.4996Z" fill="#4E1954"/>
<path d="M179.602 0H186.302V44.1H179.602V0Z" fill="#4E1954"/>
<path d="M193.699 33.5V10.7C193.699 4.8 198.499 0 204.399 0H236.799C242.699 0 247.399 4.8 247.399 10.7V33.5C247.399 39.4 242.599 44.2 236.799 44.2H204.399C198.499 44.2 193.699 39.4 193.699 33.5ZM200.399 10.7V33.5C200.399 35.7 202.199 37.5 204.399 37.5H236.799C238.999 37.5 240.799 35.7 240.799 33.5V10.7C240.799 8.5 238.999 6.60001 236.799 6.60001H204.399C202.199 6.60001 200.399 8.5 200.399 10.7Z" fill="#4E1954"/>
<path d="M256.301 37.4996H297.901C300.101 37.4996 301.901 35.6996 301.901 33.4996V29.4996C301.901 27.2996 300.101 25.4996 297.901 25.4996H265.501C259.601 25.4996 254.801 20.6996 254.801 14.7996V10.7996C254.801 4.89961 259.601 0.0996094 265.501 0.0996094H307.101V6.6996H265.501C263.301 6.6996 261.501 8.59961 261.501 10.7996V14.7996C261.501 16.9996 263.301 18.7996 265.501 18.7996H297.901C303.801 18.7996 308.501 23.5996 308.501 29.4996V33.4996C308.501 39.3996 303.701 44.1996 297.901 44.1996H256.301V37.4996Z" fill="#4E1954"/>
</svg>
